<mxfile host="app.diagrams.net" modified="2023-04-18T03:05:25.167Z" agent="Mozilla/5.0 (Macintosh; Intel Mac OS X 10_15_7) AppleWebKit/537.36 (KHTML, like Gecko) Chrome/112.0.0.0 Safari/537.36" version="21.1.7" etag="wReML-4EqtWUsfxw-s5N" type="github">
  <diagram name="第 1 页" id="sgRxJcTue_mnigR3TFUP">
    <mxGraphModel>
      <root>
        <mxCell id="0" />
        <mxCell id="1" parent="0" />
      </root>
    </mxGraphModel>
  </diagram>
</mxfile>
